<svg width="48" height="24" viewBox="0 0 48 24" fill="none" xmlns="http://www.w3.org/2000/svg">
<path d="M6.58858 6.76161C6.59051 6.58074 6.73768 6.43514 6.91856 6.43514H9.16255C9.34618 6.43514 9.49449 6.58504 9.49253 6.76866L9.4014 15.2983C9.40075 15.3597 9.38299 15.4196 9.35014 15.4714L8.06192 17.5037C7.92365 17.7218 7.5997 17.7037 7.48656 17.4716L6.53004 15.5088C6.50757 15.4627 6.49616 15.412 6.49671 15.3607L6.58858 6.76161Z" stroke="#333333" stroke-width="1.34"/>
<path d="M2.57812 10.0591L4.19761 11.7138L2.57812 13.5445" stroke="#333333" stroke-width="1.34" stroke-linecap="round" stroke-linejoin="round"/>
<path d="M13.4219 13.5444L11.8024 11.8897L13.4219 10.059" stroke="#333333" stroke-width="1.34" stroke-linecap="round" stroke-linejoin="round"/>
<path d="M20.616 17.258C21.68 16.922 23.248 16.348 24.816 15.774L24.998 16.656C23.542 17.216 22.044 17.804 20.868 18.252L20.616 17.258ZM20.882 12.078C20.826 11.868 20.672 11.392 20.546 11.126C20.798 11.07 21.036 10.748 21.33 10.258C21.638 9.796 22.632 7.976 23.178 6.282L24.116 6.702C23.5 8.2 22.716 9.74 21.904 10.958L23.444 10.818C23.724 10.328 23.99 9.824 24.214 9.32L25.054 9.796C24.256 11.294 23.318 12.806 22.352 14.052L24.41 13.59V13.926L24.452 14.444C21.638 15.144 21.204 15.284 20.966 15.452C20.91 15.256 20.77 14.794 20.658 14.542C20.938 14.5 21.232 14.136 21.638 13.632C21.862 13.352 22.366 12.638 22.912 11.742C21.386 11.924 21.078 11.994 20.882 12.078ZM26.608 9.432L27.546 9.67C27.336 10.342 27.084 11.056 26.762 11.756V19.12H25.866V13.436C25.586 13.87 25.292 14.262 24.97 14.612C24.844 14.416 24.578 14.094 24.41 13.926C25.446 12.764 26.244 10.916 26.608 9.432ZM27.868 12.344H29.422C29.534 11.91 29.632 11.392 29.716 10.93H27.658V10.062H33.104V10.93H30.752L30.388 12.344H32.908V19.036H31.956V18.448H28.778V19.106H27.868V12.344ZM28.26 6.506L29.142 6.198C29.408 6.632 29.716 7.192 29.898 7.598H33.314V9.684H32.306V8.48H26.132V9.88H25.166V7.598H28.834C28.666 7.234 28.456 6.828 28.26 6.506ZM28.778 15.76V17.594H31.956V15.76H28.778ZM28.778 14.906H31.956V13.212H28.778V14.906ZM35.092 6.996H46.908V9.74H45.83V7.976H36.142V9.74H35.092V6.996ZM35.274 15.046H43.212V16.012H35.274V15.046ZM38.2 8.256L39.25 8.368L38.942 9.88H45.186V10.804H38.746L38.34 12.582H45.564C45.564 12.582 45.55 12.918 45.522 13.072C45.186 16.558 44.878 17.958 44.332 18.49C44.01 18.812 43.688 18.91 43.156 18.938C42.694 18.966 41.784 18.952 40.874 18.896C40.846 18.602 40.72 18.182 40.524 17.902C41.504 17.986 42.442 18 42.806 18C43.128 18 43.296 17.986 43.45 17.846C43.856 17.496 44.164 16.292 44.43 13.534H37.01C37.388 12.19 37.892 9.908 38.2 8.256Z" fill="#1A1A1A"/>
</svg>
