<svg width="48" height="24" viewBox="0 0 48 24" fill="none" xmlns="http://www.w3.org/2000/svg">
<path d="M13.3639 13.4889C13.7353 13.6249 14.1476 13.4172 14.2116 13.0269C14.2664 12.6927 14.2949 12.3497 14.2949 12C14.2949 8.52287 11.4762 5.7041 7.99902 5.7041C4.52189 5.7041 1.70312 8.52287 1.70312 12C1.70312 15.4771 4.52189 18.2959 7.99902 18.2959C8.30956 18.2959 8.61485 18.2734 8.91334 18.23C9.31261 18.1719 9.52664 17.7505 9.38426 17.373C9.26241 17.0499 8.91894 16.8737 8.57594 16.9135C8.38669 16.9355 8.19418 16.9468 7.99902 16.9468C5.26698 16.9468 3.05222 14.732 3.05222 12C3.05222 9.26796 5.26698 7.0532 7.99902 7.0532C10.7311 7.0532 12.9458 9.26796 12.9458 12C12.9458 12.2257 12.9307 12.4478 12.9014 12.6654C12.8545 13.0146 13.0331 13.3677 13.3639 13.4889Z" fill="#333333"/>
<path d="M8.48109 14.9784C8.29892 15.0135 8.11077 15.0319 7.91833 15.0319C6.28845 15.0319 4.96718 13.7107 4.96718 12.0808C4.96718 10.4509 6.28845 9.12965 7.91833 9.12965C9.5482 9.12965 10.8695 10.4509 10.8695 12.0808C10.8695 12.2442 10.8562 12.4046 10.8306 12.5608L9.52038 12.0808C9.52038 11.196 8.80312 10.4787 7.91833 10.4787C7.03354 10.4787 6.31627 11.196 6.31627 12.0808C6.31627 12.9656 7.03354 13.6829 7.91833 13.6829C7.94297 13.6829 7.96748 13.6823 7.99185 13.6812L8.48109 14.9784Z" fill="#333333"/>
<path d="M9.23602 12.9834L13.8364 14.6189C13.9908 14.6763 14.068 14.8388 14.0101 14.9822C13.9838 15.0532 13.93 15.1109 13.8607 15.1426L12.1101 15.9195C11.9754 15.9765 11.8683 16.0828 11.8111 16.2159L11.0684 17.9661C11.0112 18.1081 10.8404 18.1752 10.6967 18.1208L10.6923 18.1192C10.6152 18.0905 10.5573 18.0235 10.5284 17.947L8.86947 13.3468C8.85622 13.3117 8.85022 13.2744 8.85181 13.237C8.85341 13.1995 8.86257 13.1628 8.87874 13.129C8.91144 13.0606 8.9707 13.0081 9.04313 12.9834C9.10092 12.9547 9.16847 12.9547 9.23602 12.9834ZM9.91271 14.0223L10.8371 16.5856L11.1199 15.9192C11.2512 15.6134 11.4939 15.3693 11.7981 15.2349L11.8085 15.2304L12.4767 14.9338L9.91271 14.0223Z" fill="#333333" stroke="#333333" stroke-width="0.2"/>
<path d="M26.636 11.672L27.126 11.154C27.742 11.476 28.498 11.994 28.862 12.386L28.358 12.974C27.994 12.568 27.252 12.036 26.636 11.672ZM25.614 12.946L26.118 12.4C26.762 12.75 27.532 13.296 27.924 13.702L27.406 14.304C27.042 13.898 26.272 13.31 25.614 12.946ZM29.646 16.53L30.29 15.956C31.382 16.684 32.74 17.762 33.398 18.49L32.712 19.148C32.082 18.406 30.752 17.286 29.646 16.53ZM20.602 17.188C21.68 16.852 23.29 16.264 24.886 15.69L25.054 16.558C23.584 17.118 22.03 17.72 20.84 18.168L20.602 17.188ZM25.614 9.698H28.666V8.438H26.132V7.542H28.666V6.24H29.702V7.542H32.39V8.438H29.702V9.698H32.278L32.446 9.656L33.118 9.824C32.824 10.762 32.46 11.812 32.138 12.484L31.298 12.26C31.494 11.826 31.718 11.21 31.914 10.608H25.614V9.698ZM29.072 11.154H30.052V12.848C30.052 13.366 30.024 13.926 29.912 14.486H33.146V15.41H29.66C29.17 16.768 28.064 18.112 25.67 19.148C25.544 18.91 25.25 18.56 25.054 18.364C27.056 17.524 28.064 16.474 28.582 15.41H25.32V14.486H28.904C29.044 13.912 29.072 13.338 29.072 12.82V11.154ZM20.854 12.078C20.798 11.882 20.644 11.406 20.532 11.14C20.784 11.084 21.022 10.748 21.33 10.272C21.652 9.796 22.66 7.962 23.234 6.268L24.144 6.688C23.542 8.186 22.716 9.726 21.89 10.944L23.556 10.776C23.85 10.272 24.144 9.74 24.382 9.208L25.208 9.684C24.41 11.182 23.444 12.68 22.464 13.926L24.9 13.324C24.9 13.604 24.928 14.01 24.956 14.206C21.68 15.102 21.218 15.256 20.952 15.452C20.896 15.256 20.742 14.794 20.644 14.556C20.924 14.5 21.232 14.136 21.652 13.604C21.89 13.324 22.422 12.596 23.01 11.686C21.372 11.896 21.05 11.98 20.854 12.078ZM35.092 6.996H46.908V9.74H45.83V7.976H36.142V9.74H35.092V6.996ZM35.274 15.046H43.212V16.012H35.274V15.046ZM38.2 8.256L39.25 8.368L38.942 9.88H45.186V10.804H38.746L38.34 12.582H45.564C45.564 12.582 45.55 12.918 45.522 13.072C45.186 16.558 44.878 17.958 44.332 18.49C44.01 18.812 43.688 18.91 43.156 18.938C42.694 18.966 41.784 18.952 40.874 18.896C40.846 18.602 40.72 18.182 40.524 17.902C41.504 17.986 42.442 18 42.806 18C43.128 18 43.296 17.986 43.45 17.846C43.856 17.496 44.164 16.292 44.43 13.534H37.01C37.388 12.19 37.892 9.908 38.2 8.256Z" fill="#1A1A1A"/>
</svg>
