<svg width="48" height="24" viewBox="0 0 48 24" fill="none" xmlns="http://www.w3.org/2000/svg">
<path d="M6.96763 13.9375V7.63739H3.23828V5.9375H12.7611V7.63739H9.01443V13.9375H6.96763Z" fill="black"/>
<path d="M4.66536 15.0627H11.332V13.396L13.6654 15.7293L11.332 18.0627V16.396H4.66536V18.0627L2.33203 15.7293L4.66536 13.396V15.0627Z" fill="black"/>
<path d="M22.436 6.254H23.458V9.068H24.984V10.062H23.458V12.834L24.886 12.386L25.026 13.38L23.458 13.884V17.804C23.458 18.392 23.332 18.686 22.968 18.854C22.632 19.036 22.072 19.078 21.19 19.064C21.162 18.798 21.022 18.35 20.882 18.056C21.484 18.07 22.03 18.07 22.198 18.056C22.366 18.056 22.436 18 22.436 17.804V14.22L20.84 14.738L20.56 13.674C21.078 13.534 21.722 13.352 22.436 13.142V10.062H20.77V9.068H22.436V6.254ZM28.554 6.632L29.478 6.324C29.842 6.912 30.248 7.696 30.444 8.2L30.01 8.368H33.342V9.376H26.958V11.882C26.958 14.052 26.706 17.132 25.068 19.19C24.886 18.994 24.452 18.7 24.2 18.588C25.754 16.642 25.908 13.898 25.908 11.868V8.368H29.394C29.198 7.85 28.848 7.164 28.554 6.632ZM35.092 6.996H46.908V9.74H45.83V7.976H36.142V9.74H35.092V6.996ZM35.274 15.046H43.212V16.012H35.274V15.046ZM38.2 8.256L39.25 8.368L38.942 9.88H45.186V10.804H38.746L38.34 12.582H45.564C45.564 12.582 45.55 12.918 45.522 13.072C45.186 16.558 44.878 17.958 44.332 18.49C44.01 18.812 43.688 18.91 43.156 18.938C42.694 18.966 41.784 18.952 40.874 18.896C40.846 18.602 40.72 18.182 40.524 17.902C41.504 17.986 42.442 18 42.806 18C43.128 18 43.296 17.986 43.45 17.846C43.856 17.496 44.164 16.292 44.43 13.534H37.01C37.388 12.19 37.892 9.908 38.2 8.256Z" fill="#1A1A1A"/>
</svg>
