<svg width="76" height="24" viewBox="0 0 76 24" fill="none" xmlns="http://www.w3.org/2000/svg">
<g clip-path="url(#clip0_725_8963)">
<path d="M7.99844 7.83995C7.99844 7.48649 7.7119 7.19995 7.35844 7.19995H3.99844C3.11478 7.19995 2.39844 7.9163 2.39844 8.79995V16C2.39844 16.8836 3.11478 17.6 3.99844 17.6H11.1984C12.0821 17.6 12.7984 16.8836 12.7984 16V12.64C12.7984 12.2865 12.5119 12 12.1584 12V12C11.805 12 11.5184 12.2865 11.5184 12.64V16C11.5184 16.1767 11.3752 16.32 11.1984 16.32H3.99844C3.82171 16.32 3.67844 16.1767 3.67844 16V8.79995C3.67844 8.62322 3.82171 8.47995 3.99844 8.47995H7.35844C7.7119 8.47995 7.99844 8.19341 7.99844 7.83995V7.83995Z" fill="#333333"/>
<path d="M12.2634 6.85956L13.3373 7.93351C13.4672 8.06344 13.466 8.27446 13.3346 8.40287L8.8884 12.7478C8.83811 12.797 8.77344 12.8288 8.70381 12.8386L7.24838 13.0437C7.01438 13.0766 6.82258 12.8602 6.88348 12.6318L7.21039 11.4061C7.22569 11.3488 7.25616 11.2966 7.29861 11.2551L11.7994 6.85688C11.9287 6.73054 12.1355 6.73173 12.2634 6.85956Z" stroke="#333333" stroke-width="1.34"/>
<path d="M24.004 10.174V11.448H30.066V10.174H24.004ZM22.954 9.404H31.158V12.218H22.954V9.404ZM26.174 6.436L27.182 6.198C27.378 6.66 27.588 7.248 27.742 7.696H33.118V8.62H20.826V7.696H26.58L26.174 6.436ZM21.344 13.002H32.67V18C32.67 18.518 32.544 18.742 32.166 18.882C31.788 19.008 31.186 19.008 30.29 19.008C30.234 18.756 30.08 18.434 29.954 18.21C30.556 18.238 31.214 18.224 31.382 18.224C31.55 18.224 31.62 18.168 31.62 18.014V13.884H22.352V19.106H21.344V13.002ZM23.934 14.71H29.884V17.594H24.928V18.294H23.934V14.71ZM24.928 15.494V16.81H28.932V15.494H24.928ZM34.588 17.216C35.778 16.824 37.612 16.152 39.362 15.508L39.572 16.418C37.92 17.076 36.17 17.748 34.84 18.252L34.588 17.216ZM39.6 7.15H45.76C45.438 8.354 45.032 9.824 44.682 10.972H46.11L46.306 10.93L46.964 11.196C46.53 13.226 45.788 14.878 44.822 16.18C45.606 17.062 46.516 17.776 47.524 18.252C47.286 18.448 46.964 18.826 46.81 19.092C45.816 18.588 44.934 17.86 44.164 16.978C43.324 17.916 42.358 18.63 41.322 19.148C41.168 18.896 40.804 18.504 40.58 18.336C41.672 17.832 42.68 17.118 43.52 16.18C42.834 15.242 42.246 14.178 41.77 13.03C41.392 15.522 40.734 17.58 39.53 19.148C39.348 18.98 38.858 18.644 38.606 18.504C40.51 16.264 41 12.624 41.168 8.13H39.6V7.15ZM42.218 8.13C42.162 9.138 42.106 10.104 42.008 11.014C42.498 12.596 43.226 14.108 44.164 15.382C44.85 14.402 45.396 13.254 45.746 11.896H43.338C43.688 10.916 44.108 9.446 44.444 8.13H42.218ZM34.77 12.078C34.714 11.868 34.56 11.364 34.434 11.098C34.7 11.028 34.938 10.706 35.26 10.23C35.582 9.754 36.646 7.934 37.248 6.226L38.214 6.674C37.57 8.158 36.73 9.698 35.876 10.916L37.724 10.72C38.046 10.216 38.354 9.698 38.62 9.166L39.502 9.698C38.62 11.182 37.598 12.652 36.562 13.884L39.306 13.114C39.306 13.366 39.334 13.772 39.376 13.996C35.638 15.116 35.162 15.298 34.854 15.522C34.798 15.312 34.644 14.822 34.532 14.556C34.84 14.5 35.176 14.15 35.61 13.618C35.876 13.324 36.478 12.582 37.122 11.658C35.316 11.896 34.98 11.98 34.77 12.078ZM49.092 6.996H60.908V9.74H59.83V7.976H50.142V9.74H49.092V6.996ZM49.274 15.046H57.212V16.012H49.274V15.046ZM52.2 8.256L53.25 8.368L52.942 9.88H59.186V10.804H52.746L52.34 12.582H59.564C59.564 12.582 59.55 12.918 59.522 13.072C59.186 16.558 58.878 17.958 58.332 18.49C58.01 18.812 57.688 18.91 57.156 18.938C56.694 18.966 55.784 18.952 54.874 18.896C54.846 18.602 54.72 18.182 54.524 17.902C55.504 17.986 56.442 18 56.806 18C57.128 18 57.296 17.986 57.45 17.846C57.856 17.496 58.164 16.292 58.43 13.534H51.01C51.388 12.19 51.892 9.908 52.2 8.256ZM69.364 6.408L70.372 6.674C70.148 7.318 69.882 7.962 69.588 8.578H75.468V9.586H71.114V11.616H75.146V12.582H71.114V14.71H75.328V15.704H71.114V19.106H70.05V9.586H69.084C68.482 10.72 67.796 11.742 67.082 12.526C66.914 12.344 66.508 11.98 66.27 11.812C67.53 10.496 68.664 8.466 69.364 6.408ZM65.99 6.296L66.998 6.604C66.606 7.626 66.102 8.662 65.556 9.614V19.092H64.506V11.266C64.058 11.882 63.596 12.442 63.12 12.932C63.008 12.694 62.7 12.12 62.504 11.882C63.89 10.524 65.206 8.424 65.99 6.296Z" fill="#1A1A1A"/>
</g>
<defs>
<clipPath id="clip0_725_8963">
<rect width="76" height="24" fill="white"/>
</clipPath>
</defs>
</svg>
