<svg width="48" height="24" viewBox="0 0 48 24" fill="none" xmlns="http://www.w3.org/2000/svg">
<path d="M7.52494 18.1917H7.43976C7.09907 18.1917 6.84354 17.9361 6.75837 17.6806L5.82145 14.2737L2.32931 13.5923C1.98862 13.5071 1.81827 13.3367 1.73309 12.996C1.64792 12.6553 1.81827 12.3998 2.07379 12.2295L4.96971 10.2705L4.54384 6.69315C4.54384 6.35245 4.62902 6.09693 4.96971 5.92658C5.22523 5.75624 5.56593 5.75624 5.82145 6.01176L8.6322 8.14111L11.8688 6.69315C12.1243 6.5228 12.465 6.60798 12.7206 6.8635C12.9761 7.03385 13.0613 7.37454 12.8909 7.71524L11.6985 11.037L14.0833 13.5923C14.2537 13.8478 14.3389 14.1885 14.2537 14.444C14.0833 14.6995 13.7427 14.8699 13.4871 14.8699L9.99499 14.7847L8.2915 17.851C8.03598 18.1065 7.78046 18.1917 7.52494 18.1917ZM3.52175 12.6553L6.75837 13.2516L7.69528 16.403L9.31359 13.5071L12.6354 13.5923L10.4209 11.2074L11.5281 8.14111L8.46185 9.5039L5.82145 7.54489L6.24732 10.7815L3.52175 12.6553Z" fill="#333333"/>
<path d="M4.72369 15.6409L2.33203 18.192" stroke="#333333" stroke-width="1.3" stroke-linecap="round"/>
<path d="M21.05 7.248L21.652 6.478C22.492 6.87 23.5 7.5 24.004 7.99L23.374 8.83C22.898 8.326 21.89 7.654 21.05 7.248ZM20.518 10.916L21.106 10.146C21.932 10.468 22.926 11 23.43 11.448L22.828 12.302C22.324 11.854 21.344 11.266 20.518 10.916ZM20.798 18.308C21.372 17.23 22.17 15.41 22.744 13.842L23.584 14.388C23.066 15.858 22.352 17.594 21.736 18.868L20.798 18.308ZM24.046 9.166H24.998V19.036H24.046V9.166ZM24.298 6.688L25.026 6.198C25.656 6.828 26.412 7.71 26.748 8.312L25.964 8.872C25.642 8.27 24.928 7.346 24.298 6.688ZM25.754 16.208H27.994V13.716H26.132V12.806H27.994V10.566H25.95V9.656H30.99V10.566H28.974V12.806H30.752V13.716H28.974V16.208H31.13V17.132H25.754V16.208ZM27.098 6.87H32.922V17.706C32.922 18.392 32.768 18.714 32.32 18.896C31.886 19.064 31.088 19.078 29.884 19.078C29.828 18.798 29.674 18.322 29.52 18.042C30.458 18.07 31.368 18.07 31.634 18.056C31.886 18.056 31.97 17.958 31.97 17.692V7.836H27.098V6.87ZM40.636 11.112H37.402V13.534H40.636V11.112ZM41.658 11.112V13.534H45.004V11.112H41.658ZM42.372 8.41H38.718C38.256 9.012 37.752 9.586 37.206 10.118H40.916C41.434 9.642 41.966 8.998 42.372 8.41ZM38.956 6.198L39.908 6.548C39.74 6.856 39.558 7.164 39.362 7.472H43.072L43.282 7.402L43.968 7.892C43.492 8.634 42.848 9.446 42.19 10.118H46.054V15.172H45.004V14.542H37.402V16.88C37.402 17.72 37.682 17.916 39.222 17.916C39.964 17.916 43.744 17.916 44.696 17.916C46.082 17.916 46.306 17.524 46.46 15.676C46.74 15.844 47.174 16.012 47.482 16.068C47.23 18.252 46.796 18.882 44.71 18.882C44.15 18.882 39.796 18.882 39.292 18.882C37.066 18.882 36.38 18.504 36.38 16.866V10.874C35.974 11.224 35.554 11.546 35.134 11.826C35.036 11.602 34.742 11.07 34.546 10.846C36.268 9.782 37.976 8.088 38.956 6.198Z" fill="#1A1A1A"/>
</svg>
