<svg width="49" height="24" viewBox="0 0 49 24" fill="none" xmlns="http://www.w3.org/2000/svg">
<path d="M11.66 7.28797C11.7892 7.16123 11.9964 7.16223 12.1244 7.29022L13.374 8.53975C13.5037 8.6695 13.5027 8.88019 13.3717 9.00869L7.43602 14.8303C7.39213 14.8734 7.33709 14.9033 7.2771 14.9168L5.42114 15.3326C5.16912 15.3891 4.95283 15.1472 5.03699 14.9031L5.59447 13.2857L4.96105 13.0674L5.59448 13.2857C5.61115 13.2373 5.63885 13.1935 5.67539 13.1576L11.66 7.28797Z" stroke="#333333" stroke-width="1.34"/>
<path d="M4.02734 17.5824C4.38734 17.5424 9.07734 17.5657 12.2273 17.5824" stroke="#333333" stroke-width="1.34" stroke-linecap="round"/>
<path d="M29.0413 9.81L28.9853 9.964C29.3213 11.63 29.8113 13.17 30.4973 14.486C31.1833 13.198 31.6313 11.644 31.9253 9.81H29.0413ZM21.6773 7.22H26.6473V12.218C27.7533 10.762 28.5233 8.536 28.9573 6.24L29.9933 6.422C29.8253 7.248 29.6153 8.06 29.3773 8.83H33.9413V9.81H33.0173C32.6393 12.12 32.0513 13.996 31.1273 15.522C31.9253 16.684 32.9193 17.594 34.1653 18.168C33.9133 18.378 33.5913 18.77 33.4233 19.05C32.2333 18.448 31.2673 17.552 30.4973 16.446C29.6153 17.566 28.4953 18.462 27.0673 19.176C26.9553 18.924 26.6473 18.448 26.4373 18.224C27.9213 17.552 29.0413 16.642 29.8813 15.466C29.2373 14.304 28.7473 12.932 28.3553 11.434C28.0613 12.05 27.7253 12.61 27.3613 13.1C27.1933 12.918 26.7733 12.512 26.5493 12.344L26.6193 12.26H22.9233V16.698L26.6333 15.368C26.6473 15.676 26.7173 16.124 26.7593 16.362C22.6853 17.916 22.1673 18.182 21.8453 18.448C21.7753 18.14 21.6073 17.622 21.4253 17.356C21.6353 17.258 21.8593 17.076 21.8593 16.558V11.224H25.6113V8.256H21.6773V7.22ZM35.7053 6.996H47.5213V9.74H46.4433V7.976H36.7553V9.74H35.7053V6.996ZM35.8873 15.046H43.8253V16.012H35.8873V15.046ZM38.8133 8.256L39.8633 8.368L39.5553 9.88H45.7993V10.804H39.3593L38.9533 12.582H46.1773C46.1773 12.582 46.1633 12.918 46.1353 13.072C45.7993 16.558 45.4913 17.958 44.9453 18.49C44.6233 18.812 44.3013 18.91 43.7693 18.938C43.3073 18.966 42.3973 18.952 41.4873 18.896C41.4593 18.602 41.3333 18.182 41.1373 17.902C42.1173 17.986 43.0553 18 43.4193 18C43.7413 18 43.9093 17.986 44.0633 17.846C44.4693 17.496 44.7773 16.292 45.0433 13.534H37.6233C38.0013 12.19 38.5053 9.908 38.8133 8.256Z" fill="#1A1A1A"/>
</svg>
