<svg width="76" height="24" viewBox="0 0 76 24" fill="none" xmlns="http://www.w3.org/2000/svg">
<mask id="path-1-inside-1_404_2998" fill="white">
<path fill-rule="evenodd" clip-rule="evenodd" d="M14.2978 7.7998C14.2978 6.69524 13.4024 5.7998 12.2978 5.7998H3.70605C2.60148 5.7998 1.70605 6.69524 1.70605 7.7998V14.4959C1.70605 14.4967 1.70529 14.4972 1.70459 14.4969C1.70389 14.4967 1.70312 14.4972 1.70312 14.4979V17.5993C1.70312 18.0547 2.19058 18.3441 2.5904 18.1261L5.02855 16.7964C5.32229 16.6362 5.65154 16.5522 5.98613 16.5522H12.2978C13.4024 16.5522 14.2978 15.6568 14.2978 14.5522V7.7998Z"/>
</mask>
<path d="M2.5904 18.1261L1.94882 16.9496L1.94882 16.9497L2.5904 18.1261ZM5.02855 16.7964L4.38697 15.62L5.02855 16.7964ZM3.70605 7.1398H12.2978V4.4598H3.70605V7.1398ZM3.04605 14.4959V7.7998H0.366048V14.4959H3.04605ZM3.04313 17.5993V14.4979H0.363125V17.5993H3.04313ZM1.94882 16.9497C2.44194 16.6807 3.04313 17.0376 3.04313 17.5993H0.363125C0.363125 19.0718 1.93922 20.0075 3.23198 19.3025L1.94882 16.9497ZM4.38697 15.62L1.94882 16.9496L3.23198 19.3025L5.67013 17.9728L4.38697 15.62ZM12.2978 15.2122H5.98613V17.8922H12.2978V15.2122ZM12.9578 7.7998V14.5522H15.6378V7.7998H12.9578ZM12.2978 17.8922C14.1425 17.8922 15.6378 16.3969 15.6378 14.5522H12.9578C12.9578 14.9168 12.6624 15.2122 12.2978 15.2122V17.8922ZM2.20333 13.2532C1.32233 12.8999 0.363125 13.5486 0.363125 14.4979H3.04313C3.04313 15.4457 2.08544 16.0934 1.20584 15.7407L2.20333 13.2532ZM0.366048 14.4959C0.366048 13.5482 1.32368 12.9005 2.20333 13.2532L1.20584 15.7407C2.0869 16.094 3.04605 15.4452 3.04605 14.4959H0.366048ZM5.67013 17.9728C5.76707 17.9199 5.87572 17.8922 5.98613 17.8922V15.2122C5.42736 15.2122 4.87752 15.3524 4.38697 15.62L5.67013 17.9728ZM12.2978 7.1398C12.6624 7.1398 12.9578 7.4353 12.9578 7.7998H15.6378C15.6378 5.95517 14.1425 4.4598 12.2978 4.4598V7.1398ZM3.70605 4.4598C1.86142 4.4598 0.366048 5.95517 0.366048 7.7998H3.04605C3.04605 7.4353 3.34154 7.1398 3.70605 7.1398V4.4598Z" fill="#333333" mask="url(#path-1-inside-1_404_2998)"/>
<path d="M9.99906 9.90686C9.50059 10.2996 9.22115 10.7188 9.16073 11.1644H9.95374V12.875H8.26576V11.7421C8.26576 10.8283 8.68114 10.0957 9.51192 9.54434L9.99906 9.90686ZM7.7333 9.86154C7.23484 10.2543 6.95539 10.6734 6.89497 11.119H7.68799V12.8297H6V11.6968C6 10.783 6.41539 10.0504 7.24617 9.49902L7.7333 9.86154Z" fill="#333333"/>
<path d="M29.772 12.596L30.57 12.932C29.716 13.814 28.274 14.542 26.944 14.99C26.804 14.78 26.552 14.528 26.356 14.36C27.602 13.982 29.016 13.324 29.772 12.596ZM31.116 13.982L31.9 14.318C30.836 15.494 28.974 16.362 27.084 16.88C26.958 16.67 26.748 16.376 26.538 16.18C28.316 15.774 30.164 14.976 31.116 13.982ZM32.418 15.494L33.328 15.886C31.928 17.552 29.296 18.56 26.328 19.078C26.216 18.826 25.992 18.462 25.782 18.238C28.596 17.832 31.172 16.936 32.418 15.494ZM24.284 10.146H25.18V16.908H24.284V10.146ZM27.742 8.648C28.176 9.334 28.82 10.02 29.688 10.608C30.486 10.076 31.172 9.418 31.648 8.648H27.742ZM27.91 6.226L28.876 6.478C28.694 6.912 28.498 7.346 28.26 7.766H32.194L32.39 7.724L32.992 8.032C32.46 9.32 31.578 10.328 30.5 11.112C31.382 11.574 32.418 11.952 33.608 12.176C33.412 12.372 33.146 12.778 33.02 13.016C31.704 12.708 30.584 12.232 29.66 11.644C28.47 12.344 27.098 12.806 25.698 13.1C25.6 12.876 25.376 12.498 25.194 12.302C26.468 12.064 27.756 11.672 28.862 11.084C28.176 10.552 27.63 9.964 27.238 9.376C26.832 9.894 26.412 10.356 25.992 10.748C25.81 10.58 25.418 10.272 25.18 10.132C26.314 9.194 27.322 7.738 27.91 6.226ZM23.29 6.324L24.256 6.59C23.948 7.542 23.57 8.508 23.136 9.404V19.12H22.142V11.266C21.722 11.952 21.288 12.568 20.826 13.114C20.742 12.862 20.462 12.302 20.28 12.036C21.498 10.636 22.618 8.494 23.29 6.324ZM42.428 9.81L42.372 9.964C42.708 11.63 43.198 13.17 43.884 14.486C44.57 13.198 45.018 11.644 45.312 9.81H42.428ZM35.064 7.22H40.034V12.218C41.14 10.762 41.91 8.536 42.344 6.24L43.38 6.422C43.212 7.248 43.002 8.06 42.764 8.83H47.328V9.81H46.404C46.026 12.12 45.438 13.996 44.514 15.522C45.312 16.684 46.306 17.594 47.552 18.168C47.3 18.378 46.978 18.77 46.81 19.05C45.62 18.448 44.654 17.552 43.884 16.446C43.002 17.566 41.882 18.462 40.454 19.176C40.342 18.924 40.034 18.448 39.824 18.224C41.308 17.552 42.428 16.642 43.268 15.466C42.624 14.304 42.134 12.932 41.742 11.434C41.448 12.05 41.112 12.61 40.748 13.1C40.58 12.918 40.16 12.512 39.936 12.344L40.006 12.26H36.31V16.698L40.02 15.368C40.034 15.676 40.104 16.124 40.146 16.362C36.072 17.916 35.554 18.182 35.232 18.448C35.162 18.14 34.994 17.622 34.812 17.356C35.022 17.258 35.246 17.076 35.246 16.558V11.224H38.998V8.256H35.064V7.22ZM49.372 7.262L50.044 6.618C50.8 7.248 51.766 8.13 52.2 8.704L51.486 9.46C51.038 8.858 50.128 7.92 49.372 7.262ZM53.474 9.264H55.476L55.798 7.682H52.97V6.744H60.936V7.682H56.876L56.54 9.264H59.13L59.298 9.208L60.04 9.278C59.984 10.16 59.872 11.196 59.76 12.092H61.412V13.044H52.48V12.092H54.804C54.958 11.532 55.126 10.86 55.28 10.174H53.474V9.264ZM55.896 12.092H58.766C58.85 11.462 58.92 10.762 58.962 10.174H56.344L55.896 12.092ZM53.642 14.206H60.46V19.078H59.424V18.574H54.65V19.12H53.642V14.206ZM54.65 17.65H59.424V15.144H54.65V17.65ZM50.604 18.7C50.52 18.448 50.254 17.986 50.072 17.762C50.282 17.622 50.576 17.3 50.576 16.726V11.644H48.63V10.622H51.556V16.754L53.236 15.648C53.292 15.914 53.432 16.32 53.516 16.53C51.178 18.154 50.814 18.434 50.604 18.7ZM65.556 9.74H73.942V10.622H65.556V9.74ZM65.598 6.212L66.648 6.464C66.494 6.912 66.312 7.36 66.116 7.794H74.978V8.718H65.668C64.996 10.02 64.184 11.196 63.33 12.05C63.12 11.882 62.658 11.56 62.392 11.42C63.764 10.188 64.926 8.242 65.598 6.212ZM64.142 11.728H72.794C72.892 14.934 73.284 18.084 74.376 18.07C74.628 18.07 74.712 17.342 74.74 16.166C74.95 16.404 75.244 16.642 75.482 16.782C75.384 18.448 75.146 19.106 74.306 19.106C72.444 19.106 71.926 16.278 71.772 12.652H64.142V11.728Z" fill="#1A1A1A"/>
</svg>
