<svg width="48" height="24" viewBox="0 0 48 24" fill="none" xmlns="http://www.w3.org/2000/svg">
<path d="M4.11226 5.64111H4.91481V6.74067H7.14552V9.91295H6.34929V9.59699H4.91481V11.5749H4.11226V9.59699H2.6841V9.94455H1.92578V6.74067H4.11226V5.64111ZM2.6841 8.85131H4.11226V7.48635H2.6841V8.85131ZM6.34929 8.85131V7.48635H4.91481V8.85131H6.34929Z" fill="#333333" stroke="#333333" stroke-width="0.1"/>
<path d="M9.68359 18.3589L11.2875 13.3442H12.4718L14.0756 18.3589H13.0199L12.668 17.0731H11.0506L10.6987 18.3589H9.68359ZM11.2672 16.2948H12.4582L12.3093 15.7467C12.1537 15.2256 12.0183 14.6436 11.8695 14.109H11.8424C11.707 14.6571 11.5649 15.2256 11.416 15.7467L11.2672 16.2948Z" fill="#333333" stroke="#333333" stroke-width="0.1"/>
<path fill-rule="evenodd" clip-rule="evenodd" d="M2.4375 12.3247V15.605C2.4375 16.7095 3.33293 17.605 4.4375 17.605H8.40625V16.265H4.4375C4.07299 16.265 3.7775 15.9695 3.7775 15.605V12.3247H2.4375ZM8.40625 7.73453V6.39453H11.5625C12.6671 6.39453 13.5625 7.28996 13.5625 8.39453V12.3247H12.2225V8.39453C12.2225 8.03002 11.927 7.73453 11.5625 7.73453H8.40625Z" fill="#333333"/>
<path d="M27.14 9.39L27.84 9.18C28.232 10.062 28.652 11.238 28.806 11.924L28.064 12.19C27.91 11.476 27.518 10.272 27.14 9.39ZM30.276 9.348L30.976 9.18C31.368 10.034 31.788 11.196 31.942 11.882L31.186 12.106C31.046 11.406 30.654 10.23 30.276 9.348ZM25.628 7.682L26.44 7.948C26.202 8.508 25.922 9.124 25.67 9.6H26.762V10.426H24.522C25.208 10.874 26.622 11.882 26.972 12.176L26.44 13.002C26.062 12.596 25.096 11.756 24.382 11.182V13.268H23.486V11.21C22.87 12.064 22.072 12.932 21.316 13.52H26.58V18.938H25.726V18.308H22.002V19.106H21.176V13.632L20.952 13.786C20.868 13.52 20.658 13.114 20.504 12.876C21.386 12.344 22.464 11.364 23.122 10.426H20.686V9.6H23.486V7.556C22.646 7.64 21.792 7.71 21.022 7.738C20.98 7.528 20.882 7.206 20.77 7.01C22.618 6.898 24.872 6.646 26.132 6.338L26.706 7.066C26.062 7.22 25.25 7.346 24.382 7.458V9.6H24.844C25.124 9.054 25.46 8.228 25.628 7.682ZM21.4 8.06L22.114 7.878C22.338 8.354 22.59 8.984 22.702 9.362L21.96 9.6C21.848 9.208 21.61 8.55 21.4 8.06ZM23.542 16.25H22.002V17.468H23.542V16.25ZM24.312 16.25V17.468H25.726V16.25H24.312ZM23.542 15.494V14.346H22.002V15.494H23.542ZM24.312 15.494H25.726V14.346H24.312V15.494ZM26.902 15.214C27.434 14.668 28.246 13.814 29.058 12.904V7.794H27.168V6.898H29.926V17.916C29.926 18.434 29.814 18.714 29.506 18.882C29.184 19.036 28.68 19.05 27.924 19.05C27.896 18.812 27.784 18.392 27.644 18.14C28.176 18.154 28.68 18.154 28.848 18.14C29.002 18.14 29.058 18.098 29.058 17.916V14.108C28.484 14.752 27.91 15.396 27.392 15.942L26.902 15.214ZM30.108 15.06C30.626 14.556 31.382 13.744 32.138 12.918V7.808H30.262V6.912H33.048V17.902C33.048 18.434 32.936 18.728 32.6 18.896C32.278 19.05 31.746 19.078 30.99 19.078C30.948 18.826 30.808 18.378 30.668 18.126C31.228 18.154 31.76 18.14 31.914 18.14C32.082 18.14 32.138 18.084 32.138 17.888V14.108C31.62 14.696 31.088 15.284 30.612 15.788L30.108 15.06ZM35.414 7.08L36.198 6.562C36.828 7.276 37.556 8.27 37.892 8.9L37.038 9.516C36.73 8.858 36.016 7.836 35.414 7.08ZM42.554 12.232H43.59V13.464H46.39V14.402H43.59V15.9H47.3V16.838H43.59V19.148H42.554V16.838H38.998V16.74C37.038 18.238 36.716 18.518 36.52 18.784C36.408 18.56 36.114 18.168 35.932 18.014C36.184 17.804 36.618 17.328 36.618 16.642V11.63H34.658V10.622H37.64V16.586L38.774 15.746L38.998 16.292V15.9H42.554V14.402H39.768V13.464H42.554V12.232ZM45.228 7.92H41.224C41.714 8.676 42.372 9.348 43.142 9.922C43.982 9.348 44.696 8.676 45.228 7.92ZM39.18 6.982H45.886L46.068 6.94L46.754 7.318C46.124 8.578 45.158 9.628 44.01 10.496C45.074 11.112 46.292 11.56 47.608 11.84C47.384 12.036 47.104 12.442 46.95 12.722C45.55 12.372 44.262 11.812 43.156 11.07C41.882 11.868 40.454 12.47 39.04 12.862C38.928 12.596 38.676 12.176 38.48 11.966C39.782 11.658 41.126 11.14 42.316 10.454C41.462 9.726 40.734 8.886 40.188 7.92H39.18V6.982Z" fill="#1A1A1A"/>
</svg>
