<svg width="20" height="20" viewBox="0 0 20 20" fill="none" xmlns="http://www.w3.org/2000/svg">
<g clip-path="url(#clip0_96_3094)">
<path d="M16.7533 10.0296L16.7774 10.0372L16.7975 10.0423L16.6891 10.0694L16.6593 10.0768L16.6302 10.0865L14.2628 10.8757C12.6767 11.4044 11.3656 12.7118 10.8315 14.2959L9.95159 16.6056L9.18727 14.3126C8.65791 12.7245 7.34784 11.4121 5.76099 10.8792L3.34761 10.0016L5.73987 9.24047L5.7399 9.24054L5.75029 9.23708C7.34195 8.70652 8.65672 7.39176 9.18727 5.8001L9.18734 5.80012L9.19067 5.78968L9.96088 3.36902L10.018 3.25477L10.0196 3.26106L10.0257 3.28554L10.0333 3.30959L10.8225 5.78968L10.8224 5.7897L10.8259 5.8001C11.3564 7.39176 12.6712 8.70652 14.2628 9.23708L14.2628 9.23715L14.2733 9.24047L16.7533 10.0296Z" stroke="#5A6166" stroke-width="1.6"/>
<path d="M18.3276 6.35424L18.2117 6.22225L17.611 5.4438C17.2877 5.01282 17.18 4.42021 17.3308 3.90301L17.619 2.9629L17.6809 2.79858C17.7321 2.575 17.487 2.40531 17.2957 2.53192L17.1287 2.62351L16.3503 3.22424C15.9193 3.5475 15.3267 3.65527 14.8095 3.50444L13.8694 3.21625L13.705 3.1543C13.4815 3.10313 13.3118 3.34827 13.4384 3.53951L13.5542 3.6715L14.1307 4.48498C14.454 4.91595 14.5617 5.50856 14.4109 6.02576L14.147 6.93085L14.085 7.09517C14.0338 7.31875 14.279 7.48845 14.4702 7.36183L14.6022 7.246L15.3914 6.70454C15.8224 6.38127 16.415 6.2735 16.9322 6.42433L17.8373 6.68828L18.0016 6.75023C18.2602 6.82564 18.4542 6.54549 18.3276 6.35424Z" fill="#5A6166"/>
</g>
<defs>
<clipPath id="clip0_96_3094">
<rect width="20" height="20" fill="white"/>
</clipPath>
</defs>
</svg>
