<svg width="20" height="20" viewBox="0 0 20 20" fill="none" xmlns="http://www.w3.org/2000/svg">
<path d="M3.56437 13.6526C3.21924 13.6526 2.93945 13.9324 2.93945 14.2775V14.8032C2.93945 16.3961 4.23077 17.6874 5.82368 17.6874H14.1158C15.7087 17.6874 17.0001 16.3961 17.0001 14.8032V14.2775C17.0001 13.9324 16.7203 13.6526 16.3751 13.6526C16.03 13.6526 15.7502 13.9324 15.7502 14.2775V14.8032C15.7502 15.7058 15.0185 16.4376 14.1158 16.4376H5.82368C4.92103 16.4376 4.18928 15.7058 4.18928 14.8032V14.2775C4.18928 13.9324 3.9095 13.6526 3.56437 13.6526Z" fill="#666666"/>
<path d="M9.96973 5V13.2471" stroke="#666666" stroke-width="1.2" stroke-linecap="round"/>
<path d="M7.60352 11.219L9.96948 13.247L12.3355 11.219" stroke="#666666" stroke-width="1.2" stroke-linecap="round" stroke-linejoin="round"/>
</svg>
