<svg width="200" height="51" viewBox="0 0 200 51" fill="none" xmlns="http://www.w3.org/2000/svg">
<g clip-path="url(#clip0_625_11622)">
<rect x="15" y="6.86133" width="38" height="38" rx="19" fill="#1A1A1A"/>
<g style="mix-blend-mode:screen" filter="url(#filter0_f_625_11622)">
<ellipse cx="29.5" cy="23.4102" rx="7.5" ry="8" fill="#008EF5"/>
</g>
<g style="mix-blend-mode:screen" filter="url(#filter1_f_625_11622)">
<circle cx="40" cy="25.4102" r="7" fill="#008EF5"/>
</g>
<g filter="url(#filter2_f_625_11622)">
<path d="M46.9563 30.911L36.981 13.1928C35.6392 10.8101 32.2435 10.8175 30.9121 13.2055L21.0431 30.9121C20.919 31.1337 21.0775 31.4091 21.3298 31.4091H24.5785C24.6963 31.4091 24.8047 31.3458 24.8631 31.2424L33.7125 15.7043C33.8397 15.4805 34.1598 15.4816 34.2849 15.7074L42.9351 31.2403C42.9935 31.3447 43.103 31.4102 43.2218 31.4102H46.6696C46.923 31.4091 47.0814 31.1337 46.9563 30.911Z" fill="#B700F7"/>
</g>
<g filter="url(#filter3_f_625_11622)">
<path d="M45.958 30.936L36.3663 14.1037C35.0761 11.8401 31.8111 11.8472 30.5309 14.1157L21.0415 30.937C20.9222 31.1475 21.0745 31.4092 21.3171 31.4092H24.4409C24.5541 31.4092 24.6584 31.349 24.7145 31.2508L33.2235 16.4895C33.3458 16.277 33.6536 16.278 33.7739 16.4926L42.0914 31.2488C42.1476 31.348 42.2528 31.4102 42.3671 31.4102H45.6823C45.9259 31.4092 46.0783 31.1475 45.958 30.936Z" fill="#008FF7"/>
</g>
<g filter="url(#filter4_f_625_11622)">
<path d="M31.3655 18.6689L37.426 30.3862L43.6051 30.4672L34.2231 13.7192L31.3655 18.6689Z" fill="#008FF7"/>
</g>
<g filter="url(#filter5_f_625_11622)">
<path d="M28.7077 30.4102L37 17.448L33.6885 12.4102L23 30.4102H28.7077Z" fill="#FF0808"/>
</g>
<g filter="url(#filter6_f_625_11622)">
<path d="M40 23.2131L35.6203 15.4102L30 26.4102H36.7342L40 23.2131Z" fill="#F94FB2"/>
</g>
<g clip-path="url(#clip1_625_11622)">
<g filter="url(#filter7_d_625_11622)">
<path d="M45.4293 29.7571L36.3651 14.4928C35.1458 12.4401 32.0603 12.4465 30.8505 14.5037L21.8829 29.758C21.7702 29.9489 21.9142 30.1862 22.1434 30.1862H25.0954C25.2024 30.1862 25.301 30.1316 25.354 30.0425L33.3951 16.6564C33.5107 16.4637 33.8015 16.4646 33.9152 16.6591L41.7754 30.0407C41.8284 30.1307 41.9279 30.1871 42.0359 30.1871H45.1688C45.399 30.1862 45.543 29.9489 45.4293 29.7571Z" fill="white"/>
</g>
<g filter="url(#filter8_d_625_11622)">
<path d="M31.4417 33.6628L31.4066 28.555C31.4047 28.2968 31.6094 28.086 31.8623 28.086H37.3749C37.626 28.086 37.8297 27.8782 37.8297 27.622C37.8297 26.221 36.7165 25.0859 35.3448 25.0859H31.4076C29.7346 25.0859 28.3789 26.4695 28.3789 28.1769V33.6667C28.3789 33.9229 28.5826 34.1307 28.8336 34.1307H30.987C31.239 34.1298 31.4436 33.92 31.4417 33.6628Z" fill="white"/>
</g>
<path d="M32.4566 29.0449H32.2539V29.9808H32.4566V29.0449Z" fill="white"/>
<path d="M32.6387 29.2969V29.732C32.6387 29.8103 32.6595 29.8721 32.7012 29.9176C32.723 29.9408 32.7505 29.9572 32.7846 29.9669C32.8177 29.9766 32.867 29.9814 32.9305 29.9814H33.6343V29.2978H33.4439V29.8354H33.2383V29.2978H33.047V29.8354H32.9437C32.9039 29.8354 32.8736 29.8257 32.8537 29.8074C32.8442 29.7967 32.8376 29.7851 32.8348 29.7726C32.831 29.76 32.83 29.7368 32.83 29.7039V29.2988H32.6387V29.2969Z" fill="white"/>
<path d="M33.9054 29.5792C33.8685 29.5927 33.8381 29.6169 33.8164 29.6526C33.7946 29.6884 33.7832 29.73 33.7832 29.7754C33.7832 29.8508 33.8116 29.9079 33.8675 29.9446C33.8884 29.9582 33.913 29.9669 33.9405 29.9707C33.9679 29.9746 34.0181 29.9775 34.0911 29.9775H34.4947V29.5927C34.5003 29.4438 34.4501 29.35 34.344 29.3104C34.3213 29.3036 34.2986 29.2997 34.2768 29.2968C34.255 29.2939 34.2152 29.293 34.1565 29.293H33.8334V29.439H34.1565C34.2142 29.439 34.2531 29.4477 34.273 29.4641C34.2929 29.4805 34.3024 29.5134 34.3024 29.5608H34.0674C33.9926 29.5627 33.9386 29.5685 33.9054 29.5792ZM34.3024 29.7087V29.8325H34.0816C34.0437 29.8325 34.0163 29.8276 34.0011 29.818C33.985 29.8083 33.9774 29.7928 33.9774 29.7716C33.9774 29.7522 33.984 29.7367 33.9964 29.7251C34.0087 29.7135 34.0267 29.7087 34.0485 29.7087H34.0816H34.3024Z" fill="white"/>
<path d="M35.3208 29.9795V29.5589C35.3208 29.4641 35.2962 29.3955 35.2479 29.351C35.2242 29.3307 35.1977 29.3162 35.1683 29.3085C35.1389 29.3007 35.0972 29.2969 35.0413 29.2969H34.6719V29.9804H34.8632V29.4429H35.029C35.0641 29.4429 35.0897 29.4506 35.1048 29.4651C35.12 29.4796 35.1275 29.5047 35.1275 29.5376V29.9795H35.3208Z" fill="white"/>
<path d="M35.9214 29.4433V29.2973H35.7443V29.0449H35.5529V29.2973H35.4316V29.4433H35.5529V29.7236C35.5529 29.8165 35.5709 29.8822 35.606 29.9218C35.641 29.9615 35.7007 29.9808 35.7831 29.9808H35.9214V29.8348H35.8456C35.8049 29.8348 35.7755 29.8232 35.7594 29.801C35.749 29.7865 35.7433 29.7498 35.7433 29.6917V29.4433H35.9214Z" fill="white"/>
<path d="M36.3659 29.4429H36.6207V29.2969H36.3516C36.2815 29.2969 36.2256 29.3056 36.183 29.3239C36.1404 29.3423 36.1034 29.3713 36.0731 29.4139C36.0286 29.4757 36.0059 29.5473 36.0059 29.6295C36.0059 29.7571 36.0485 29.8528 36.1328 29.9166C36.1631 29.9389 36.1963 29.9553 36.2313 29.965C36.2664 29.9746 36.3109 29.9795 36.3668 29.9795H36.6216V29.8335H36.3886C36.3308 29.8335 36.2882 29.8238 36.2626 29.8054C36.237 29.7871 36.2219 29.7552 36.2181 29.7097H36.6216V29.5637H36.2181C36.2228 29.5173 36.2361 29.4844 36.2569 29.468C36.2777 29.4516 36.3137 29.4429 36.3659 29.4429Z" fill="white"/>
<path d="M37.1293 29.4429H37.3586V29.2969H37.0971C37.0336 29.2969 36.9815 29.3017 36.9408 29.3123C36.9 29.323 36.8659 29.3404 36.8375 29.3646C36.7655 29.4245 36.7305 29.5154 36.7305 29.6362C36.7305 29.7368 36.7608 29.8209 36.8205 29.8857C36.8517 29.9205 36.8877 29.9447 36.9294 29.9582C36.9701 29.9727 37.026 29.9795 37.0971 29.9795H37.3586V29.8335H37.152C37.1123 29.8335 37.081 29.8306 37.0583 29.8257C37.0355 29.8209 37.0147 29.8112 36.9957 29.7987C36.9493 29.7648 36.9256 29.7117 36.9256 29.6391C36.9256 29.5734 36.9398 29.525 36.9683 29.4931C36.9986 29.4593 37.0516 29.4429 37.1293 29.4429Z" fill="white"/>
<path d="M37.9814 29.5129C37.9852 29.5283 37.9861 29.5544 37.9861 29.5912V29.9798H38.1775V29.5544C38.1775 29.4616 38.1557 29.3959 38.1112 29.3562C38.0884 29.334 38.06 29.3185 38.0278 29.3089C37.9946 29.3001 37.9492 29.2953 37.8914 29.2953H37.6953V29.043H37.5039V29.9789H37.6953V29.4413H37.8516C37.9046 29.4423 37.9416 29.4529 37.9605 29.4722C37.971 29.4838 37.9785 29.4974 37.9814 29.5129Z" fill="white"/>
<path d="M26.4807 37.916L25.557 37.9228L25.4936 38.0958H24.4297V38.6286H25.3107L24.4363 41.096H25.36L26.1359 38.8945V38.9592V39.3692V39.6718C26.314 39.7579 26.4978 39.8449 26.6853 39.9309C26.8729 40.017 27.0662 40.1011 27.2632 40.1823C27.0614 40.2306 26.8568 40.2703 26.6503 40.3012C26.4438 40.3322 26.2297 40.3554 26.0089 40.3699V41.0389C26.404 41.0147 26.7933 40.9625 27.1789 40.8804C27.5645 40.7991 27.9444 40.7005 28.3205 40.5855C28.6823 40.7102 29.0528 40.8165 29.4307 40.9055C29.8087 40.9944 30.1981 41.0583 30.5979 41.096V40.4337C30.3771 40.4095 30.1668 40.3795 29.9669 40.3438C29.7671 40.308 29.571 40.2635 29.3786 40.2103C29.5946 40.1243 29.8049 40.0363 30.0096 39.9474C30.2142 39.8584 30.4103 39.7666 30.5979 39.6708V39.3682V38.9583V38.8364H26.1567L26.2344 38.6276H30.5979V38.0949H26.4172L26.4807 37.916ZM29.6458 39.3692C29.4203 39.4601 29.1996 39.549 28.9836 39.6351C28.7676 39.7211 28.5469 39.8033 28.3214 39.8797C28.1101 39.7985 27.9027 39.7153 27.7009 39.6312C27.4991 39.5471 27.2916 39.4601 27.0804 39.3682H29.6458V39.3692Z" fill="white"/>
<path d="M30.4574 35.8867L24.5781 36.2096V36.8362L30.4574 36.5123V35.8867Z" fill="white"/>
<path d="M30.1536 37.211H29.8154L29.9774 36.8301H28.9694L28.8074 37.211H27.9055L27.7359 36.8301H26.728L26.89 37.211H26.2268L26.0572 36.8301H25.0502L25.2122 37.211H24.4297V37.9371L25.395 37.9448V37.765H29.5331C29.5984 37.765 29.6316 37.7989 29.6316 37.8656V37.9448H30.5979V37.6645C30.5979 37.5397 30.5543 37.4334 30.4671 37.3444C30.38 37.2555 30.2758 37.211 30.1536 37.211Z" fill="white"/>
<path d="M31.1758 41.0952H32.6773C32.72 41.0952 32.7635 41.0904 32.8081 41.0807C32.8526 41.0711 32.8933 41.0595 32.9312 41.045C32.9739 41.0256 33.0127 41.0044 33.0477 40.9802C33.0828 40.956 33.1169 40.928 33.1501 40.8941C33.2069 40.8419 33.2533 40.7723 33.2912 40.6853C33.3291 40.6089 33.3481 40.5171 33.3481 40.4117V35.9004H31.1758V41.0952ZM32.0284 36.613H32.5144V38.1889H32.0284V36.613ZM32.0284 38.9005H32.5144V40.2173C32.5144 40.2657 32.5002 40.3063 32.4718 40.3401C32.4386 40.3691 32.4017 40.3836 32.359 40.3836H32.0274V38.9005H32.0284Z" fill="white"/>
<path d="M34.947 36.1101L35.0673 35.8867H34.0877L33.5875 36.8217H35.991L35.829 37.1098H33.5875V39.6922H34.4686L33.418 41.0951H34.4193L35.4557 39.6922H36.71C36.7574 39.6922 36.8019 39.6874 36.8436 39.6777C36.8853 39.668 36.9279 39.6535 36.9705 39.6342C37.0132 39.6149 37.0529 39.5936 37.0899 39.5694C37.1278 39.5453 37.16 39.5172 37.1884 39.4834C37.2443 39.4263 37.2945 39.3567 37.3362 39.2755C37.3504 39.233 37.3618 39.1895 37.3713 39.1469C37.3807 39.1034 37.3855 39.058 37.3855 39.0106V37.1098H36.8284L37.3855 36.1101H34.947ZM35.0455 38.9806H34.4885V37.8223H35.0455V38.9806ZM36.4902 38.8153C36.4902 38.8588 36.4741 38.8946 36.441 38.9236C36.4125 38.9622 36.3746 38.9816 36.3282 38.9816H35.9332V37.8223H36.4902V38.8153Z" fill="white"/>
<path d="M36.5118 40.4062C36.4692 40.3675 36.4483 40.3153 36.4483 40.2476V39.8164H35.5957V40.3056C35.5957 40.411 35.6165 40.5116 35.6592 40.6073C35.7065 40.7127 35.7624 40.7987 35.8288 40.8664C35.9036 40.9428 35.9889 41.0008 36.0826 41.0395C36.1764 41.0781 36.2778 41.0965 36.3858 41.0965H37.1749L37.3862 40.4777H36.6814C36.6151 40.4777 36.5582 40.4536 36.5118 40.4062Z" fill="white"/>
<path d="M43.5804 38.5859L37.9551 38.5927V39.8013H38.4411V39.9879H40.7668V40.3185C40.7668 40.3814 40.746 40.4336 40.7033 40.4771C40.6607 40.5206 40.6067 40.5419 40.5413 40.5419H39.5267L39.2937 41.0814H40.8938C41.0018 41.0814 41.1041 41.0601 41.2007 41.0166C41.2973 40.9731 41.3816 40.916 41.4546 40.8435C41.5275 40.772 41.5853 40.6869 41.627 40.5883C41.6687 40.4896 41.6905 40.3852 41.6905 40.275V39.9869H43.4109V39.8003H44.1015V39.1245C44.1015 38.9756 44.0513 38.8489 43.9499 38.7435C43.8495 38.6391 43.7263 38.5859 43.5804 38.5859ZM43.2138 39.4348H38.766V39.1467H43.0594C43.102 39.1467 43.138 39.1631 43.1683 39.195C43.1987 39.227 43.2138 39.2647 43.2138 39.3091V39.4348Z" fill="white"/>
<path d="M43.8018 38.0743C43.8719 38.0027 43.9278 37.9196 43.9676 37.8258C44.0074 37.732 44.0272 37.6305 44.0272 37.5203V36.916H38.0703V38.3044H43.2514C43.3594 38.3044 43.4607 38.2841 43.5545 38.2435C43.6483 38.2019 43.7307 38.1458 43.8018 38.0743ZM43.0827 37.5996C43.0827 37.6624 43.0619 37.7146 43.0193 37.7581C42.9766 37.8016 42.9226 37.8229 42.8573 37.8229H39.0224V37.3917H43.0827V37.5996Z" fill="white"/>
<path d="M41.5795 35.8945H40.4938L40.5573 36.1179H37.9492V36.6719H40.7193H41.8049H44.1449V36.1179H41.6429L41.5795 35.8945Z" fill="white"/>
<g filter="url(#filter9_d_625_11622)">
<ellipse cx="42.4204" cy="17.2883" rx="0.320778" ry="0.327378" fill="#BC4FF6"/>
</g>
<g filter="url(#filter10_d_625_11622)">
<ellipse cx="39.3522" cy="12.7241" rx="0.229127" ry="0.233841" fill="#32A2F3" fill-opacity="0.6" shape-rendering="crispEdges"/>
</g>
<g filter="url(#filter11_d_625_11622)">
<ellipse cx="43.9166" cy="14.81" rx="0.229127" ry="0.233841" fill="#32A2F3" fill-opacity="0.6" shape-rendering="crispEdges"/>
</g>
<g filter="url(#filter12_d_625_11622)">
<ellipse cx="25.0591" cy="19.595" rx="0.320778" ry="0.327378" fill="#F332CF" fill-opacity="0.7" shape-rendering="crispEdges"/>
</g>
<g filter="url(#filter13_d_625_11622)">
<ellipse cx="39.4216" cy="15.6143" rx="0.157883" ry="0.161131" fill="#F332CF" fill-opacity="0.5" shape-rendering="crispEdges"/>
</g>
<g filter="url(#filter14_d_625_11622)">
<ellipse cx="24.5876" cy="16.7978" rx="0.157883" ry="0.161131" fill="#F332CF" fill-opacity="0.5" shape-rendering="crispEdges"/>
</g>
</g>
<g filter="url(#filter15_d_625_11622)">
<circle cx="48.5" cy="21.9102" r="0.5" fill="#F332CF"/>
</g>
<g filter="url(#filter16_d_625_11622)">
<circle cx="21.5" cy="18.9102" r="0.5" fill="#32A2F3" fill-opacity="0.6" shape-rendering="crispEdges"/>
</g>
<g filter="url(#filter17_d_625_11622)">
<circle cx="24.5" cy="12.9102" r="0.5" fill="#C351FF"/>
</g>
</g>
<rect x="15.25" y="7.11133" width="37.5" height="37.5" rx="18.75" stroke="#B5B5B5" stroke-width="0.5"/>
<path d="M59.1752 25.2104C59.3461 24.21 59.7069 23.2756 60.257 22.4063C60.8071 21.5371 61.4985 20.8039 62.331 20.2045C63.1932 19.5836 64.1522 19.1493 65.2079 18.901C66.2262 18.6672 67.248 18.6311 68.2741 18.7914C69.2698 18.9447 70.2033 19.2735 71.0726 19.7771C71.9426 20.2808 72.6855 20.9197 73.3027 21.6939C73.9417 22.4972 74.4029 23.3914 74.6853 24.3772H72.0097C71.4892 23.209 70.6454 22.3328 69.4788 21.7487C68.3044 21.1646 67.0743 21.0224 65.7884 21.3214C64.3238 21.6571 63.1975 22.4535 62.4101 23.7092C61.622 24.9655 61.3989 26.3085 61.7414 27.7397C62.0832 29.1784 62.8931 30.2849 64.172 31.0584C65.4501 31.8326 66.818 32.0518 68.2748 31.7154C69.1222 31.5184 69.8764 31.1458 70.538 30.5985C71.1771 30.0657 71.6679 29.4192 72.0097 28.6595H74.6853C74.2991 30.0033 73.5964 31.1604 72.5781 32.1316C71.5302 33.132 70.2888 33.8 68.8538 34.1358C67.8059 34.3765 66.7537 34.4098 65.6987 34.2343C64.6726 34.0588 63.7215 33.705 62.8444 33.1715C61.9596 32.6311 61.2125 31.9519 60.603 31.134C59.964 30.287 59.5212 29.3449 59.2762 28.3078C59.0304 27.2804 58.9965 26.2468 59.1752 25.2104Z" fill="white"/>
<path d="M81.7389 24.2115C83.1731 24.2115 84.3962 24.7082 85.4074 25.7009C86.3734 26.643 86.8826 27.7821 86.9348 29.1182V34.3426H84.471V29.293C84.4633 28.5632 84.1956 27.9347 83.6681 27.4089C83.1329 26.8907 82.4903 26.6312 81.7389 26.6312C80.9883 26.6312 80.3449 26.8941 79.8097 27.42C79.2822 27.9389 79.0181 28.5702 79.0181 29.3152V34.3426H76.543V18.625H79.0181V24.967C79.3747 24.7478 79.7539 24.5764 80.155 24.4523C80.6684 24.292 81.1966 24.2115 81.7389 24.2115Z" fill="white"/>
<path d="M92.8793 34.3388C92.1477 34.3388 91.438 34.1987 90.77 33.9226C90.1231 33.6534 89.542 33.2677 89.0427 32.7773C88.5434 32.2868 88.1508 31.7159 87.8768 31.0797C87.5958 30.4242 87.4531 29.727 87.4531 29.0083C87.4531 28.2896 87.5958 27.5924 87.8768 26.9361C88.1508 26.3014 88.5434 25.7298 89.0427 25.2393C89.542 24.7488 90.1238 24.3631 90.7707 24.094C91.438 23.8179 92.1477 23.6777 92.8793 23.6777C93.4421 23.6777 93.9985 23.7617 94.5338 23.9275C94.9476 24.0586 95.3508 24.241 95.7315 24.4693L96.1615 24.7273V23.6992H98.3061V34.2618H96.1615V33.2885L95.7315 33.5466C95.3508 33.7755 94.9469 33.9573 94.5324 34.0891C93.9985 34.2549 93.4421 34.3388 92.8793 34.3388ZM92.8793 25.7846C91.9803 25.7846 91.2007 26.103 90.5609 26.7315C89.9282 27.3607 89.6083 28.1266 89.6083 29.009C89.6083 29.8914 89.9282 30.6573 90.5595 31.2851C91.2007 31.9073 91.9803 32.2216 92.8793 32.2216C93.7775 32.2216 94.5571 31.9073 95.1962 31.2872C95.8367 30.658 96.1608 29.8914 96.1608 29.0083C96.1608 28.1252 95.8367 27.3593 95.1976 26.7308C94.5578 26.103 93.7775 25.7846 92.8793 25.7846Z" fill="white"/>
<path d="M101.95 31.2202H101.939V31.0447V26.8609H99.1289V24.4398H101.939V18.6348H104.392V24.4398H107.525V26.8609H104.392V31.0121C104.399 31.2237 104.474 31.4138 104.615 31.5817C104.756 31.7496 104.939 31.8592 105.162 31.9105C105.347 31.9542 105.53 31.9473 105.708 31.8883C105.887 31.8224 106.039 31.717 106.165 31.5706L106.265 31.4499L106.4 31.5373L108.183 32.6001L108.351 32.6986L108.239 32.8519C107.838 33.4291 107.303 33.8488 106.633 34.1117C105.972 34.36 105.292 34.4037 104.593 34.2428C103.835 34.0673 103.211 33.6843 102.72 33.0926C102.266 32.5453 102.009 31.9209 101.95 31.2202Z" fill="white"/>
<path d="M109.75 23.0378H112.303V31.8446H116.373C117.882 31.8446 119.168 31.3222 120.231 30.2782C121.294 29.2265 121.825 27.9632 121.825 26.4884C121.825 25.0059 121.294 23.7426 120.231 22.6986C119.168 21.6545 117.882 21.1322 116.373 21.1322H109.75V18.6348H116.373C117.458 18.6348 118.495 18.8394 119.484 19.248C120.443 19.6497 121.29 20.2116 122.026 20.9351C122.762 21.6587 123.334 22.4905 123.743 23.4325C124.159 24.4037 124.368 25.4221 124.368 26.4884C124.368 27.5546 124.159 28.573 123.743 29.5442C123.334 30.4863 122.762 31.3188 122.026 32.0416C121.289 32.7645 120.443 33.3229 119.484 33.7176C118.495 34.1339 117.458 34.342 116.373 34.342H112.303H109.75V23.0378Z" fill="white"/>
<path d="M127.017 18.6699H137.765L130.563 31.9457L138.055 31.9346V34.3445H126.191L133.45 21.0799L127.017 21.0688V18.6699Z" fill="white"/>
<path d="M140.273 25.1541C140.451 24.1538 140.811 23.2194 141.354 22.3501C141.905 21.474 142.599 20.7365 143.44 20.1378C144.302 19.517 145.261 19.0862 146.317 18.8454C147.365 18.5971 148.42 18.5603 149.483 18.7358C150.501 18.9113 151.453 19.2686 152.337 19.809C153.222 20.3418 153.973 21.021 154.589 21.8465C155.221 22.6935 155.66 23.6356 155.905 24.6727C156.18 25.8049 156.194 26.9398 155.949 28.0789C155.711 29.211 155.236 30.244 154.522 31.1784L156.384 34.3439H153.563L152.716 32.8981C152.299 33.1833 151.861 33.424 151.4 33.621C150.939 33.8257 150.464 33.9859 149.973 34.1031C148.917 34.3439 147.862 34.3772 146.807 34.2016C145.781 34.0261 144.826 33.6723 143.941 33.1389C143.056 32.5985 142.309 31.9158 141.7 31.0903C141.068 30.2433 140.626 29.3012 140.373 28.2641C140.128 27.2277 140.095 26.1906 140.273 25.1541ZM151.601 26.2273L153.072 28.7247C153.332 28.1774 153.493 27.6078 153.552 27.0161C153.611 26.4243 153.57 25.8333 153.429 25.2415C153.087 23.8104 152.277 22.7039 150.998 21.9228C149.727 21.1486 148.36 20.9301 146.896 21.2658C145.431 21.6092 144.305 22.4091 143.517 23.6647C142.729 24.9134 142.506 26.2572 142.849 27.6952C143.198 29.1264 144.008 30.2329 145.279 31.014C146.557 31.7882 147.929 32.0074 149.393 31.671C149.765 31.5835 150.121 31.4594 150.464 31.2984C150.806 31.1382 151.129 30.9481 151.434 30.7289L148.792 26.2273H151.601Z" fill="white"/>
<path d="M163.734 33.9062C162.199 32.1562 161.431 30.0075 161.431 27.46C161.431 24.9124 162.199 22.7295 163.734 20.9111H164.917C163.377 22.8024 162.606 24.9808 162.606 27.4463C162.606 29.9072 163.372 32.0605 164.903 33.9062H163.734ZM166.428 31.5V20.9111H169.538C170.468 20.9111 171.211 21.1344 171.767 21.5811C172.323 22.0231 172.601 22.611 172.601 23.3447C172.601 23.9281 172.434 24.443 172.102 24.8896C171.773 25.3363 171.32 25.653 170.741 25.8398V25.8672C171.461 25.9492 172.035 26.2227 172.464 26.6875C172.897 27.1478 173.113 27.7334 173.113 28.4443C173.113 29.3558 172.785 30.0941 172.129 30.6592C171.477 31.2197 170.641 31.5 169.62 31.5H166.428ZM167.795 22.1074V25.4229H169.039C169.7 25.4229 170.217 25.2633 170.591 24.9443C170.969 24.6208 171.158 24.1742 171.158 23.6045C171.158 22.6064 170.493 22.1074 169.162 22.1074H167.795ZM167.795 26.6123V30.3037H169.436C170.151 30.3037 170.702 30.1396 171.09 29.8115C171.482 29.4788 171.678 29.0186 171.678 28.4307C171.678 27.2184 170.855 26.6123 169.21 26.6123H167.795ZM181.207 28.0615H175.916C175.939 28.8682 176.16 29.4925 176.579 29.9346C176.998 30.3721 177.584 30.5908 178.336 30.5908C179.184 30.5908 179.961 30.3197 180.667 29.7773V30.9736C180.002 31.443 179.12 31.6777 178.021 31.6777C176.928 31.6777 176.073 31.3314 175.458 30.6387C174.847 29.946 174.542 28.9844 174.542 27.7539C174.542 26.5964 174.877 25.6416 175.547 24.8896C176.221 24.1377 177.058 23.7617 178.056 23.7617C179.045 23.7617 179.817 24.0807 180.373 24.7188C180.929 25.3522 181.207 26.2409 181.207 27.3848V28.0615ZM179.867 26.9883C179.863 26.3047 179.701 25.776 179.382 25.4023C179.063 25.0286 178.614 24.8418 178.035 24.8418C177.502 24.8418 177.039 25.04 176.647 25.4365C176.26 25.833 176.016 26.3503 175.916 26.9883H179.867ZM186.621 31.4248C186.329 31.5843 185.935 31.6641 185.438 31.6641C184.085 31.6641 183.408 30.9144 183.408 29.415V25.0469H182.109V23.9395H183.408V22.1211L184.741 21.6973V23.9395H186.621V25.0469H184.741V29.1758C184.741 29.6725 184.826 30.028 184.994 30.2422C185.163 30.4564 185.443 30.5635 185.835 30.5635C186.136 30.5635 186.398 30.4792 186.621 30.3105V31.4248ZM188.392 24.4658C189.144 23.9964 190.012 23.7617 190.996 23.7617C192.819 23.7617 193.73 24.7188 193.73 26.6328V31.5H192.404V30.3311H192.37C191.846 31.2288 191.074 31.6777 190.053 31.6777C189.319 31.6777 188.736 31.4795 188.303 31.083C187.87 30.6865 187.653 30.151 187.653 29.4766C187.653 28.0638 188.49 27.2412 190.162 27.0088L192.404 26.6943C192.404 25.4593 191.894 24.8418 190.873 24.8418C189.966 24.8418 189.139 25.1471 188.392 25.7578V24.4658ZM190.634 27.9453C190.014 28.0273 189.586 28.1823 189.349 28.4102C189.116 28.638 189 28.957 189 29.3672C189 29.7272 189.128 30.0212 189.383 30.249C189.638 30.4769 189.975 30.5908 190.395 30.5908C190.978 30.5908 191.459 30.3857 191.837 29.9756C192.215 29.5654 192.404 29.0505 192.404 28.4307V27.7061L190.634 27.9453ZM194.927 33.9062C196.463 32.0651 197.23 29.9118 197.23 27.4463C197.23 24.9762 196.458 22.7979 194.913 20.9111H196.103C197.643 22.7158 198.413 24.8988 198.413 27.46C198.413 30.0212 197.643 32.1699 196.103 33.9062H194.927Z" fill="white"/>
<defs>
<filter id="filter0_f_625_11622" x="15.9" y="9.31016" width="27.2" height="28.2" filterUnits="userSpaceOnUse" color-interpolation-filters="sRGB">
<feFlood flood-opacity="0" result="BackgroundImageFix"/>
<feBlend mode="normal" in="SourceGraphic" in2="BackgroundImageFix" result="shape"/>
<feGaussianBlur stdDeviation="3.05" result="effect1_foregroundBlur_625_11622"/>
</filter>
<filter id="filter1_f_625_11622" x="22.3" y="7.71016" width="35.4" height="35.4" filterUnits="userSpaceOnUse" color-interpolation-filters="sRGB">
<feFlood flood-opacity="0" result="BackgroundImageFix"/>
<feBlend mode="normal" in="SourceGraphic" in2="BackgroundImageFix" result="shape"/>
<feGaussianBlur stdDeviation="5.35" result="effect1_foregroundBlur_625_11622"/>
</filter>
<filter id="filter2_f_625_11622" x="17.4" y="7.81016" width="33.2" height="27.2" filterUnits="userSpaceOnUse" color-interpolation-filters="sRGB">
<feFlood flood-opacity="0" result="BackgroundImageFix"/>
<feBlend mode="normal" in="SourceGraphic" in2="BackgroundImageFix" result="shape"/>
<feGaussianBlur stdDeviation="1.8" result="effect1_foregroundBlur_625_11622"/>
</filter>
<filter id="filter3_f_625_11622" x="17.4" y="8.81016" width="32.2" height="26.2" filterUnits="userSpaceOnUse" color-interpolation-filters="sRGB">
<feFlood flood-opacity="0" result="BackgroundImageFix"/>
<feBlend mode="normal" in="SourceGraphic" in2="BackgroundImageFix" result="shape"/>
<feGaussianBlur stdDeviation="1.8" result="effect1_foregroundBlur_625_11622"/>
</filter>
<filter id="filter4_f_625_11622" x="25.8652" y="8.21875" width="23.2402" height="27.748" filterUnits="userSpaceOnUse" color-interpolation-filters="sRGB">
<feFlood flood-opacity="0" result="BackgroundImageFix"/>
<feBlend mode="normal" in="SourceGraphic" in2="BackgroundImageFix" result="shape"/>
<feGaussianBlur stdDeviation="2.75" result="effect1_foregroundBlur_625_11622"/>
</filter>
<filter id="filter5_f_625_11622" x="18" y="7.41016" width="24" height="28" filterUnits="userSpaceOnUse" color-interpolation-filters="sRGB">
<feFlood flood-opacity="0" result="BackgroundImageFix"/>
<feBlend mode="normal" in="SourceGraphic" in2="BackgroundImageFix" result="shape"/>
<feGaussianBlur stdDeviation="2.5" result="effect1_foregroundBlur_625_11622"/>
</filter>
<filter id="filter6_f_625_11622" x="23.8" y="9.21016" width="22.4" height="23.4" filterUnits="userSpaceOnUse" color-interpolation-filters="sRGB">
<feFlood flood-opacity="0" result="BackgroundImageFix"/>
<feBlend mode="normal" in="SourceGraphic" in2="BackgroundImageFix" result="shape"/>
<feGaussianBlur stdDeviation="3.1" result="effect1_foregroundBlur_625_11622"/>
</filter>
<filter id="filter7_d_625_11622" x="20.8438" y="12.957" width="25.625" height="19.2305" filterUnits="userSpaceOnUse" color-interpolation-filters="sRGB">
<feFlood flood-opacity="0" result="BackgroundImageFix"/>
<feColorMatrix in="SourceAlpha" type="matrix" values="0 0 0 0 0 0 0 0 0 0 0 0 0 0 0 0 0 0 127 0" result="hardAlpha"/>
<feOffset dy="1"/>
<feGaussianBlur stdDeviation="0.5"/>
<feComposite in2="hardAlpha" operator="out"/>
<feColorMatrix type="matrix" values="0 0 0 0 0 0 0 0 0 0 0 0 0 0 0 0 0 0 0.43 0"/>
<feBlend mode="normal" in2="BackgroundImageFix" result="effect1_dropShadow_625_11622"/>
<feBlend mode="normal" in="SourceGraphic" in2="effect1_dropShadow_625_11622" result="shape"/>
</filter>
<filter id="filter8_d_625_11622" x="27.3789" y="25.0859" width="11.4512" height="11.0449" filterUnits="userSpaceOnUse" color-interpolation-filters="sRGB">
<feFlood flood-opacity="0" result="BackgroundImageFix"/>
<feColorMatrix in="SourceAlpha" type="matrix" values="0 0 0 0 0 0 0 0 0 0 0 0 0 0 0 0 0 0 127 0" result="hardAlpha"/>
<feOffset dy="1"/>
<feGaussianBlur stdDeviation="0.5"/>
<feComposite in2="hardAlpha" operator="out"/>
<feColorMatrix type="matrix" values="0 0 0 0 0 0 0 0 0 0 0 0 0 0 0 0 0 0 0.43 0"/>
<feBlend mode="normal" in2="BackgroundImageFix" result="effect1_dropShadow_625_11622"/>
<feBlend mode="normal" in="SourceGraphic" in2="effect1_dropShadow_625_11622" result="shape"/>
</filter>
<filter id="filter9_d_625_11622" x="41.3996" y="16.2609" width="2.04062" height="2.0543" filterUnits="userSpaceOnUse" color-interpolation-filters="sRGB">
<feFlood flood-opacity="0" result="BackgroundImageFix"/>
<feColorMatrix in="SourceAlpha" type="matrix" values="0 0 0 0 0 0 0 0 0 0 0 0 0 0 0 0 0 0 127 0" result="hardAlpha"/>
<feOffset/>
<feGaussianBlur stdDeviation="0.35"/>
<feComposite in2="hardAlpha" operator="out"/>
<feColorMatrix type="matrix" values="0 0 0 0 0.99389 0 0 0 0 0.231239 0 0 0 0 0.231239 0 0 0 0.89 0"/>
<feBlend mode="normal" in2="BackgroundImageFix" result="effect1_dropShadow_625_11622"/>
<feBlend mode="normal" in="SourceGraphic" in2="effect1_dropShadow_625_11622" result="shape"/>
</filter>
<filter id="filter10_d_625_11622" x="38.423" y="11.7902" width="1.85898" height="1.8668" filterUnits="userSpaceOnUse" color-interpolation-filters="sRGB">
<feFlood flood-opacity="0" result="BackgroundImageFix"/>
<feColorMatrix in="SourceAlpha" type="matrix" values="0 0 0 0 0 0 0 0 0 0 0 0 0 0 0 0 0 0 127 0" result="hardAlpha"/>
<feOffset/>
<feGaussianBlur stdDeviation="0.35"/>
<feComposite in2="hardAlpha" operator="out"/>
<feColorMatrix type="matrix" values="0 0 0 0 0.231239 0 0 0 0 0.719336 0 0 0 0 0.99389 0 0 0 0.89 0"/>
<feBlend mode="normal" in2="BackgroundImageFix" result="effect1_dropShadow_625_11622"/>
<feBlend mode="normal" in="SourceGraphic" in2="effect1_dropShadow_625_11622" result="shape"/>
</filter>
<filter id="filter11_d_625_11622" x="42.9875" y="13.8762" width="1.85898" height="1.8668" filterUnits="userSpaceOnUse" color-interpolation-filters="sRGB">
<feFlood flood-opacity="0" result="BackgroundImageFix"/>
<feColorMatrix in="SourceAlpha" type="matrix" values="0 0 0 0 0 0 0 0 0 0 0 0 0 0 0 0 0 0 127 0" result="hardAlpha"/>
<feOffset/>
<feGaussianBlur stdDeviation="0.35"/>
<feComposite in2="hardAlpha" operator="out"/>
<feColorMatrix type="matrix" values="0 0 0 0 0.231239 0 0 0 0 0.719336 0 0 0 0 0.99389 0 0 0 0.89 0"/>
<feBlend mode="normal" in2="BackgroundImageFix" result="effect1_dropShadow_625_11622"/>
<feBlend mode="normal" in="SourceGraphic" in2="effect1_dropShadow_625_11622" result="shape"/>
</filter>
<filter id="filter12_d_625_11622" x="24.0383" y="18.5676" width="2.04062" height="2.0543" filterUnits="userSpaceOnUse" color-interpolation-filters="sRGB">
<feFlood flood-opacity="0" result="BackgroundImageFix"/>
<feColorMatrix in="SourceAlpha" type="matrix" values="0 0 0 0 0 0 0 0 0 0 0 0 0 0 0 0 0 0 127 0" result="hardAlpha"/>
<feOffset/>
<feGaussianBlur stdDeviation="0.35"/>
<feComposite in2="hardAlpha" operator="out"/>
<feColorMatrix type="matrix" values="0 0 0 0 0.99389 0 0 0 0 0.231239 0 0 0 0 0.231239 0 0 0 0.89 0"/>
<feBlend mode="normal" in2="BackgroundImageFix" result="effect1_dropShadow_625_11622"/>
<feBlend mode="normal" in="SourceGraphic" in2="effect1_dropShadow_625_11622" result="shape"/>
</filter>
<filter id="filter13_d_625_11622" x="38.5637" y="14.7531" width="1.71641" height="1.72227" filterUnits="userSpaceOnUse" color-interpolation-filters="sRGB">
<feFlood flood-opacity="0" result="BackgroundImageFix"/>
<feColorMatrix in="SourceAlpha" type="matrix" values="0 0 0 0 0 0 0 0 0 0 0 0 0 0 0 0 0 0 127 0" result="hardAlpha"/>
<feOffset/>
<feGaussianBlur stdDeviation="0.35"/>
<feComposite in2="hardAlpha" operator="out"/>
<feColorMatrix type="matrix" values="0 0 0 0 0.99389 0 0 0 0 0.231239 0 0 0 0 0.231239 0 0 0 0.89 0"/>
<feBlend mode="normal" in2="BackgroundImageFix" result="effect1_dropShadow_625_11622"/>
<feBlend mode="normal" in="SourceGraphic" in2="effect1_dropShadow_625_11622" result="shape"/>
</filter>
<filter id="filter14_d_625_11622" x="23.7297" y="15.9367" width="1.71641" height="1.72227" filterUnits="userSpaceOnUse" color-interpolation-filters="sRGB">
<feFlood flood-opacity="0" result="BackgroundImageFix"/>
<feColorMatrix in="SourceAlpha" type="matrix" values="0 0 0 0 0 0 0 0 0 0 0 0 0 0 0 0 0 0 127 0" result="hardAlpha"/>
<feOffset/>
<feGaussianBlur stdDeviation="0.35"/>
<feComposite in2="hardAlpha" operator="out"/>
<feColorMatrix type="matrix" values="0 0 0 0 0.99389 0 0 0 0 0.231239 0 0 0 0 0.231239 0 0 0 0.89 0"/>
<feBlend mode="normal" in2="BackgroundImageFix" result="effect1_dropShadow_625_11622"/>
<feBlend mode="normal" in="SourceGraphic" in2="effect1_dropShadow_625_11622" result="shape"/>
</filter>
<filter id="filter15_d_625_11622" x="47.3" y="20.7102" width="2.4" height="2.4" filterUnits="userSpaceOnUse" color-interpolation-filters="sRGB">
<feFlood flood-opacity="0" result="BackgroundImageFix"/>
<feColorMatrix in="SourceAlpha" type="matrix" values="0 0 0 0 0 0 0 0 0 0 0 0 0 0 0 0 0 0 127 0" result="hardAlpha"/>
<feOffset/>
<feGaussianBlur stdDeviation="0.35"/>
<feComposite in2="hardAlpha" operator="out"/>
<feColorMatrix type="matrix" values="0 0 0 0 0.99389 0 0 0 0 0.231239 0 0 0 0 0.231239 0 0 0 0.89 0"/>
<feBlend mode="normal" in2="BackgroundImageFix" result="effect1_dropShadow_625_11622"/>
<feBlend mode="normal" in="SourceGraphic" in2="effect1_dropShadow_625_11622" result="shape"/>
</filter>
<filter id="filter16_d_625_11622" x="20.3" y="17.7102" width="2.4" height="2.4" filterUnits="userSpaceOnUse" color-interpolation-filters="sRGB">
<feFlood flood-opacity="0" result="BackgroundImageFix"/>
<feColorMatrix in="SourceAlpha" type="matrix" values="0 0 0 0 0 0 0 0 0 0 0 0 0 0 0 0 0 0 127 0" result="hardAlpha"/>
<feOffset/>
<feGaussianBlur stdDeviation="0.35"/>
<feComposite in2="hardAlpha" operator="out"/>
<feColorMatrix type="matrix" values="0 0 0 0 0.231239 0 0 0 0 0.719336 0 0 0 0 0.99389 0 0 0 0.89 0"/>
<feBlend mode="normal" in2="BackgroundImageFix" result="effect1_dropShadow_625_11622"/>
<feBlend mode="normal" in="SourceGraphic" in2="effect1_dropShadow_625_11622" result="shape"/>
</filter>
<filter id="filter17_d_625_11622" x="23.3" y="11.7102" width="2.4" height="2.4" filterUnits="userSpaceOnUse" color-interpolation-filters="sRGB">
<feFlood flood-opacity="0" result="BackgroundImageFix"/>
<feColorMatrix in="SourceAlpha" type="matrix" values="0 0 0 0 0 0 0 0 0 0 0 0 0 0 0 0 0 0 127 0" result="hardAlpha"/>
<feOffset/>
<feGaussianBlur stdDeviation="0.35"/>
<feComposite in2="hardAlpha" operator="out"/>
<feColorMatrix type="matrix" values="0 0 0 0 0.99389 0 0 0 0 0.231239 0 0 0 0 0.231239 0 0 0 0.89 0"/>
<feBlend mode="normal" in2="BackgroundImageFix" result="effect1_dropShadow_625_11622"/>
<feBlend mode="normal" in="SourceGraphic" in2="effect1_dropShadow_625_11622" result="shape"/>
</filter>
<clipPath id="clip0_625_11622">
<rect x="15" y="6.86133" width="38" height="38" rx="19" fill="white"/>
</clipPath>
<clipPath id="clip1_625_11622">
<rect width="27" height="31" fill="white" transform="translate(21 11.4102)"/>
</clipPath>
</defs>
</svg>
