<svg width="29" height="29" viewBox="0 0 29 29" fill="none" xmlns="http://www.w3.org/2000/svg">
<path d="M11.1051 18.5427H10.8965C9.38365 18.5427 8.23601 17.2907 8.23601 15.8301C8.23601 14.3694 9.43582 13.1175 10.8965 13.1175C12.3571 13.1175 13.5569 14.3694 13.5569 15.8301C13.5569 16.7691 13.0874 17.5515 12.4093 18.0732C12.8787 19.1687 13.6091 20.1077 14.548 20.838L14.6002 20.7858L14.6524 20.838C16.113 21.8291 17.9388 22.1943 19.8168 21.7248C23.1032 20.838 25.0855 17.4994 24.2508 14.2129C23.4162 10.9265 19.9733 9.04854 16.6868 9.88319C16.426 9.93536 16.1652 10.0397 15.9044 10.144C17.5215 11.5003 18.5126 13.5348 18.5126 15.7779H17.1563C17.1563 12.3871 14.3915 9.67453 10.9486 9.67453C7.50569 9.67453 4.74091 12.4393 4.74091 15.7779C4.74091 19.1165 7.50569 21.9334 10.9486 21.9334C11.7833 21.9334 12.5658 21.777 13.2961 21.464C12.3049 20.7336 11.5224 19.7425 11.1051 18.5427ZM14.548 9.30937C15.0697 8.99638 15.6435 8.78772 16.2695 8.63122C20.3384 7.53574 24.4595 9.88319 25.5028 13.8478C26.5983 17.8645 24.1987 21.9856 20.1298 23.0811C18.2518 23.6027 16.2173 23.3419 14.4959 22.4029C13.4004 22.9768 12.2006 23.3419 10.8443 23.3419C6.67104 23.3419 3.28027 20.0033 3.28027 15.8822C3.28027 11.7612 6.67104 8.42256 10.8443 8.42256C12.2006 8.42256 13.4526 8.73555 14.548 9.30937ZM10.8965 17.1864C11.6268 17.1864 12.2006 16.6126 12.2006 15.8301C12.2006 15.0998 11.6268 14.4738 10.8965 14.4738C10.1661 14.4738 9.59231 15.0476 9.59231 15.8301C9.59231 16.6126 10.114 17.1864 10.8965 17.1864Z" fill="#999999" stroke="#999999" stroke-width="0.8"/>
</svg>
