<svg width="29" height="29" viewBox="0 0 29 29" fill="none" xmlns="http://www.w3.org/2000/svg">
<path d="M11.7602 25.1263C12.3125 25.1263 12.7602 24.6786 12.7602 24.1263C12.7602 23.5741 12.3125 23.1263 11.7602 23.1263V25.1263ZM6.36328 8.33301V21.1263H8.36328V8.33301H6.36328ZM10.3633 25.1263H11.7602V23.1263H10.3633V25.1263ZM6.36328 21.1263C6.36328 23.3355 8.15414 25.1263 10.3633 25.1263V23.1263C9.25871 23.1263 8.36328 22.2309 8.36328 21.1263H6.36328Z" fill="#0090F7"/>
<ellipse cx="7.36375" cy="7.58107" rx="2.63817" ry="2.63222" fill="#0090F7"/>
<path d="M12.4395 17.1283C12.9365 17.1283 13.3395 16.7253 13.3395 16.2283C13.3395 15.7312 12.9365 15.3283 12.4395 15.3283V17.1283ZM7.56445 17.1283H12.4395V15.3283H7.56445V17.1283Z" fill="#0090F7"/>
<rect x="15.4707" y="7.30823" width="9.00913" height="2.58945" rx="1.29472" fill="#0090F7"/>
<rect x="15.4707" y="15.0765" width="9.00913" height="2.58945" rx="1.29472" fill="#0090F7"/>
<rect x="15.4707" y="22.3594" width="9.00913" height="2.58945" rx="1.29472" fill="#0090F7"/>
</svg>
