<svg width="20" height="20" viewBox="0 0 20 20" fill="none" xmlns="http://www.w3.org/2000/svg">
<path d="M14.969 16.9991C13.066 16.9991 10.2116 15.3831 7.59478 12.7666C6.00886 11.1502 4.74044 9.38025 4.02665 7.76388C3.39244 6.07151 3.39244 4.76346 4.10664 3.99366C5.61299 2.60842 9.49822 4.2244 12.9076 7.76467C16.3966 11.2278 17.9029 15.0756 16.3966 16.4608C16.0795 16.8455 15.6036 16.9994 14.9694 16.9994L14.969 16.9991ZM5.61258 4.30158C5.2163 4.30158 4.89879 4.37836 4.66127 4.6095C4.18541 5.07098 4.26458 6.07152 4.81961 7.45675C5.45382 8.99555 6.64347 10.6115 8.22899 12.2279C11.5592 15.6138 14.969 16.8451 15.9203 15.9217C16.9512 14.9984 15.6824 11.6121 12.4317 8.30293C9.81492 5.68642 7.11852 4.30118 5.61258 4.30118V4.30158Z" fill="#5A6166" stroke="#5A6166" stroke-width="0.6"/>
<path d="M5.61141 17C4.9772 17 4.50134 16.846 4.10507 16.4617C3.3121 15.7691 3.3121 14.3839 4.02548 12.6903C4.73927 11.1511 6.00769 9.38157 7.59362 7.76519C11.0826 4.3021 14.8882 2.60855 16.395 3.99379C17.188 4.68641 17.188 6.07164 16.4742 7.7648C15.7608 9.38078 14.5711 11.1507 12.906 12.7671C11.3205 14.3831 9.49665 15.6915 7.91072 16.3841C7.11776 16.7688 6.3252 16.9996 5.61141 16.9996V17ZM14.9678 4.3025C13.4611 4.3025 10.7655 5.68774 8.14865 8.30425C6.64231 9.84344 5.37348 11.5366 4.73927 13.0758C4.18424 14.461 4.10507 15.4612 4.58052 15.9998C5.05638 16.4617 6.16645 16.3849 7.51444 15.7691C9.02079 15.0765 10.6859 13.8452 12.2718 12.306C13.7782 10.7668 15.047 9.07365 15.6812 7.53485C16.2362 6.14961 16.3158 5.14908 15.84 4.61002C15.6812 4.37928 15.3641 4.3025 14.9678 4.3025Z" fill="#5A6166" stroke="#5A6166" stroke-width="0.6"/>
<ellipse cx="10.3504" cy="10.1574" rx="1.65216" ry="1.60224" fill="#5A6166"/>
</svg>
